[2024-12-23 13:43:36] ä»»åŠ¡å·²åŠ å…¥é˜Ÿåˆ—ï¼Œå½“å‰ä½ç½®ï¼š2
[2024-12-23 13:49:02] å¼€å§‹å¤„ç†ä»»åŠ¡...
[2024-12-23 13:49:07] tango args: C:\computer\3\itproject\digitaltool\static\action_uploads\20241223134336-f9ff3d\20241223134336-f9ff3d.wav C:\computer\3\itproject\digitaltool\static\action_uploads\20241223134336-f9ff3d\20241223134336-f9ff3d.mp4 C:\computer\3\itproject\digitaltool\static\action_uploads\20241223134336-f9ff3d\20241223134336-f9ff3d_output.mp4
[2024-12-23 13:49:07] è§†é¢‘å¼€å§‹ç”Ÿæˆ
[2024-12-23 13:49:08] C:\computer\3\itproject\manyaitools_modules\TANGO\datasets/data_json/youtube_test/speaker1.json
[2024-12-23 13:49:10] ffmpeg version 2024-06-24-git-6ec22731ae-full_build-www.gyan.dev Copyright (c) 2000-2024 the FFmpeg developers
[2024-12-23 13:49:10] built with gcc 13.2.0 (Rev5, Built by MSYS2 project)
[2024-12-23 13:49:10] configuration: --enable-gpl --enable-version3 --enable-static --disable-w32threads --disable-autodetect --enable-fontconfig --enable-iconv --enable-gnutls --enable-libxml2 --enable-gmp --enable-bzlib --enable-lzma --enable-libsnappy --enable-zlib --enable-librist --enable-libsrt --enable-libssh --enable-libzmq --enable-avisynth --enable-libbluray --enable-libcaca --enable-sdl2 --enable-libaribb24 --enable-libaribcaption --enable-libdav1d --enable-libdavs2 --enable-libopenjpeg --enable-libquirc --enable-libuavs3d --enable-libxevd --enable-libzvbi --enable-libqrencode --enable-librav1e --enable-libsvtav1 --enable-libwebp --enable-libx264 --enable-libx265 --enable-libxavs2 --enable-libxeve --enable-libxvid --enable-libaom --enable-libjxl --enable-libvpx --enable-mediafoundation --enable-libass --enable-frei0r --enable-libfreetype --enable-libfribidi --enable-libharfbuzz --enable-liblensfun --enable-libvidstab --enable-libvmaf --enable-libzimg --enable-amf --enable-cuda-llvm --enable-cuvid --enable-dxva2 --enable-d3d11va --enable-d3d12va --enable-ffnvcodec --enable-libvpl --enable-nvdec --enable-nvenc --enable-vaapi --enable-libshaderc --enable-vulkan --enable-libplacebo --enable-opencl --enable-libcdio --enable-libgme --enable-libmodplug --enable-libopenmpt --enable-libopencore-amrwb --enable-libmp3lame --enable-libshine --enable-libtheora --enable-libtwolame --enable-libvo-amrwbenc --enable-libcodec2 --enable-libilbc --enable-libgsm --enable-libopencore-amrnb --enable-libopus --enable-libspeex --enable-libvorbis --enable-ladspa --enable-libbs2b --enable-libflite --enable-libmysofa --enable-librubberband --enable-libsoxr --enable-chromaprint
[2024-12-23 13:49:10] libavutil      59. 25.100 / 59. 25.100
[2024-12-23 13:49:10] libavcodec     61.  8.100 / 61.  8.100
[2024-12-23 13:49:10] libavformat    61.  4.100 / 61.  4.100
[2024-12-23 13:49:10] libavdevice    61.  2.100 / 61.  2.100
[2024-12-23 13:49:10] libavfilter    10.  2.102 / 10.  2.102
[2024-12-23 13:49:10] libswscale      8.  2.100 /  8.  2.100
[2024-12-23 13:49:10] libswresample   5.  2.100 /  5.  2.100
[2024-12-23 13:49:10] libpostproc    58.  2.100 / 58.  2.100
[2024-12-23 13:49:10] Input #0, mov,mp4,m4a,3gp,3g2,mj2, from 'C:\computer\3\itproject\manyaitools_modules\TANGO\outputs/tmpvideo\save_video_fps.mp4':
[2024-12-23 13:49:10] Metadata:
[2024-12-23 13:49:10] major_brand     : isom
[2024-12-23 13:49:10] minor_version   : 512
[2024-12-23 13:49:10] compatible_brands: isomiso2mp41
[2024-12-23 13:49:10] encoder         : Lavf58.76.100
[2024-12-23 13:49:10] Duration: 00:00:10.00, start: 0.000000, bitrate: 4877 kb/s
[2024-12-23 13:49:10] Stream #0:0[0x1](und): Video: mpeg4 (Simple Profile) (mp4v / 0x7634706D), yuv420p, 720x1280 [SAR 1:1 DAR 9:16], 4875 kb/s, 30 fps, 30 tbr, 15360 tbn (default)
[2024-12-23 13:49:10] Metadata:
[2024-12-23 13:49:10] handler_name    : VideoHandler
[2024-12-23 13:49:10] vendor_id       : [0][0][0][0]
[2024-12-23 13:49:10] Stream mapping:
[2024-12-23 13:49:10] Stream #0:0 -> #0:0 (mpeg4 (native) -> h264 (libx264))
[2024-12-23 13:49:10] Press [q] to stop, [?] for help
[2024-12-23 13:49:10] [libx264 @ 000002487f77d2c0] using SAR=1/1
[2024-12-23 13:49:10] [libx264 @ 000002487f77d2c0] using cpu capabilities: MMX2 SSE2Fast SSSE3 SSE4.2 AVX FMA3 BMI2 AVX2
[2024-12-23 13:49:10] [libx264 @ 000002487f77d2c0] profile High, level 3.1, 4:2:0, 8-bit
[2024-12-23 13:49:10] [libx264 @ 000002487f77d2c0] 264 - core 164 r3191 4613ac3 - H.264/MPEG-4 AVC codec - Copyleft 2003-2024 - http://www.videolan.org/x264.html - options: cabac=1 ref=3 deblock=1:0:0 analyse=0x3:0x113 me=hex subme=7 psy=1 psy_rd=1.00:0.00 mixed_ref=1 me_range=16 chroma_me=1 trellis=1 8x8dct=1 cqm=0 deadzone=21,11 fast_pskip=1 chroma_qp_offset=-2 threads=24 lookahead_threads=4 sliced_threads=0 nr=0 decimate=1 interlaced=0 bluray_compat=0 constrained_intra=0 bframes=3 b_pyramid=2 b_adapt=1 b_bias=0 direct=1 weightb=1 open_gop=0 weightp=2 keyint=250 keyint_min=25 scenecut=40 intra_refresh=0 rc_lookahead=40 rc=crf mbtree=1 crf=23.0 qcomp=0.60 qpmin=0 qpmax=69 qpstep=4 ip_ratio=1.40 aq=1:1.00
[2024-12-23 13:49:10] Output #0, mp4, to 'C:\computer\3\itproject\manyaitools_modules\TANGO\outputs/tmpvideo\save_video.mp4':
[2024-12-23 13:49:10] Metadata:
[2024-12-23 13:49:10] major_brand     : isom
[2024-12-23 13:49:10] minor_version   : 512
[2024-12-23 13:49:10] compatible_brands: isomiso2mp41
[2024-12-23 13:49:10] encoder         : Lavf61.4.100
[2024-12-23 13:49:10] Stream #0:0(und): Video: h264 (avc1 / 0x31637661), yuv420p(progressive), 720x1280 [SAR 1:1 DAR 9:16], q=2-31, 30 fps, 15360 tbn (default)
[2024-12-23 13:49:10] Metadata:
[2024-12-23 13:49:10] handler_name    : VideoHandler
[2024-12-23 13:49:10] vendor_id       : [0][0][0][0]
[2024-12-23 13:49:10] encoder         : Lavc61.8.100 libx264
[2024-12-23 13:49:10] Side data:
[2024-12-23 13:49:10] cpb: bitrate max/min/avg: 0/0/0 buffer size: 0 vbv_delay: N/A
[2024-12-23 13:49:11] frame=    0 fps=0.0 q=0.0 size=       0KiB time=N/A bitrate=N/A speed=N/A
[2024-12-23 13:49:12] frame=    0 fps=0.0 q=0.0 size=       0KiB time=N/A bitrate=N/A speed=N/A
[2024-12-23 13:49:12] frame=    0 fps=0.0 q=0.0 size=       0KiB time=N/A bitrate=N/A speed=N/A
[2024-12-23 13:49:13] frame=    0 fps=0.0 q=0.0 size=       0KiB time=N/A bitrate=N/A speed=N/A
[2024-12-23 13:49:13] frame=    0 fps=0.0 q=0.0 size=       0KiB time=N/A bitrate=N/A speed=N/A
[2024-12-23 13:49:14] frame=    0 fps=0.0 q=0.0 size=       0KiB time=N/A bitrate=N/A speed=N/A
[2024-12-23 13:49:14] frame=    0 fps=0.0 q=0.0 size=       0KiB time=N/A bitrate=N/A speed=N/A
[2024-12-23 13:49:15] frame=    0 fps=0.0 q=0.0 size=       0KiB time=N/A bitrate=N/A speed=N/A
[2024-12-23 13:49:15] frame=    0 fps=0.0 q=0.0 size=       0KiB time=N/A bitrate=N/A speed=N/A
[2024-12-23 13:49:16] frame=    0 fps=0.0 q=0.0 size=       0KiB time=N/A bitrate=N/A speed=N/A
[2024-12-23 13:49:17] frame=    3 fps=0.5 q=29.0 size=       0KiB time=00:00:00.03 bitrate=  11.5kbits/s speed=0.00588x
[2024-12-23 13:49:17] frame=   10 fps=1.6 q=29.0 size=       0KiB time=00:00:00.26 bitrate=   1.4kbits/s speed=0.0431x
[2024-12-23 13:49:18] frame=   17 fps=2.5 q=29.0 size=       0KiB time=00:00:00.50 bitrate=   0.8kbits/s speed=0.0747x
[2024-12-23 13:49:18] frame=   24 fps=3.3 q=29.0 size=     256KiB time=00:00:00.73 bitrate=2860.3kbits/s speed=0.102x
[2024-12-23 13:49:19] frame=   31 fps=4.0 q=29.0 size=     256KiB time=00:00:00.96 bitrate=2169.9kbits/s speed=0.125x
[2024-12-23 13:49:19] frame=   36 fps=4.4 q=29.0 size=     256KiB time=00:00:01.13 bitrate=1850.8kbits/s speed=0.137x
[2024-12-23 13:49:20] frame=   41 fps=4.7 q=29.0 size=     256KiB time=00:00:01.30 bitrate=1613.5kbits/s speed=0.149x
[2024-12-23 13:49:20] frame=   46 fps=5.0 q=29.0 size=     256KiB time=00:00:01.46 bitrate=1430.1kbits/s speed=0.158x
[2024-12-23 13:49:21] frame=   51 fps=5.2 q=29.0 size=     512KiB time=00:00:01.63 bitrate=2568.2kbits/s speed=0.167x
[2024-12-23 13:49:21] frame=   56 fps=5.4 q=29.0 size=     512KiB time=00:00:01.80 bitrate=2330.4kbits/s speed=0.175x
[2024-12-23 13:49:22] frame=   62 fps=5.7 q=29.0 size=     512KiB time=00:00:02.00 bitrate=2097.3kbits/s speed=0.185x
[2024-12-23 13:49:22] frame=   67 fps=5.9 q=29.0 size=     512KiB time=00:00:02.16 bitrate=1936.0kbits/s speed=0.191x
[2024-12-23 13:49:23] frame=   72 fps=6.1 q=29.0 size=     768KiB time=00:00:02.33 bitrate=2696.5kbits/s speed=0.197x
[2024-12-23 13:49:23] frame=   77 fps=6.2 q=29.0 size=     768KiB time=00:00:02.50 bitrate=2516.7kbits/s speed=0.202x
[2024-12-23 13:49:24] frame=   82 fps=6.4 q=29.0 size=     768KiB time=00:00:02.66 bitrate=2359.4kbits/s speed=0.207x
[2024-12-23 13:49:24] frame=   88 fps=6.6 q=29.0 size=     768KiB time=00:00:02.86 bitrate=2194.8kbits/s speed=0.214x
[2024-12-23 13:49:25] frame=   93 fps=6.7 q=29.0 size=     768KiB time=00:00:03.03 bitrate=2074.2kbits/s speed=0.218x
[2024-12-23 13:49:25] frame=   98 fps=6.8 q=29.0 size=    1024KiB time=00:00:03.20 bitrate=2621.6kbits/s speed=0.222x
[2024-12-23 13:49:26] frame=  101 fps=6.8 q=29.0 size=    1024KiB time=00:00:03.30 bitrate=2542.1kbits/s speed=0.221x
[2024-12-23 13:49:26] frame=  106 fps=6.9 q=29.0 size=    1024KiB time=00:00:03.46 bitrate=2419.9kbits/s speed=0.224x
[2024-12-23 13:49:27] frame=  112 fps=7.0 q=29.0 size=    1024KiB time=00:00:03.66 bitrate=2287.9kbits/s speed=0.229x
[2024-12-23 13:49:27] frame=  117 fps=7.1 q=29.0 size=    1024KiB time=00:00:03.83 bitrate=2188.4kbits/s speed=0.232x
[2024-12-23 13:49:28] frame=  123 fps=7.2 q=29.0 size=    1280KiB time=00:00:04.03 bitrate=2599.9kbits/s speed=0.237x
[2024-12-23 13:49:28] frame=  128 fps=7.3 q=29.0 size=    1280KiB time=00:00:04.20 bitrate=2496.7kbits/s speed=0.24x
[2024-12-23 13:49:29] frame=  134 fps=7.4 q=29.0 size=    1280KiB time=00:00:04.40 bitrate=2383.2kbits/s speed=0.244x
[2024-12-23 13:49:29] frame=  140 fps=7.5 q=29.0 size=    1280KiB time=00:00:04.60 bitrate=2279.6kbits/s speed=0.248x
[2024-12-23 13:49:30] frame=  146 fps=7.7 q=29.0 size=    1536KiB time=00:00:04.80 bitrate=2621.5kbits/s speed=0.252x
[2024-12-23 13:49:30] frame=  152 fps=7.8 q=29.0 size=    1536KiB time=00:00:05.00 bitrate=2516.7kbits/s speed=0.255x
[2024-12-23 13:49:31] frame=  157 fps=7.8 q=29.0 size=    1536KiB time=00:00:05.16 bitrate=2435.5kbits/s speed=0.257x
[2024-12-23 13:49:31] frame=  163 fps=7.9 q=29.0 size=    1536KiB time=00:00:05.36 bitrate=2344.7kbits/s speed=0.26x
[2024-12-23 13:49:32] frame=  169 fps=8.0 q=29.0 size=    1792KiB time=00:00:05.56 bitrate=2637.2kbits/s speed=0.263x
[2024-12-23 13:49:33] frame=  175 fps=8.1 q=29.0 size=    1792KiB time=00:00:05.76 bitrate=2545.7kbits/s speed=0.266x
[2024-12-23 13:49:33] frame=  181 fps=8.2 q=29.0 size=    1792KiB time=00:00:05.96 bitrate=2460.4kbits/s speed=0.269x
[2024-12-23 13:49:34] frame=  187 fps=8.2 q=29.0 size=    1792KiB time=00:00:06.16 bitrate=2380.6kbits/s speed=0.272x
[2024-12-23 13:49:34] frame=  193 fps=8.3 q=29.0 size=    2048KiB time=00:00:06.36 bitrate=2635.2kbits/s speed=0.274x
[2024-12-23 13:49:35] frame=  200 fps=8.4 q=29.0 size=    2048KiB time=00:00:06.60 bitrate=2542.1kbits/s speed=0.278x
[2024-12-23 13:49:35] frame=  206 fps=8.5 q=29.0 size=    2048KiB time=00:00:06.80 bitrate=2467.3kbits/s speed=0.28x
[2024-12-23 13:49:36] frame=  212 fps=8.6 q=29.0 size=    2048KiB time=00:00:07.00 bitrate=2396.8kbits/s speed=0.283x
[2024-12-23 13:49:36] frame=  218 fps=8.6 q=29.0 size=    2048KiB time=00:00:07.20 bitrate=2330.2kbits/s speed=0.285x
[2024-12-23 13:49:37] frame=  224 fps=8.7 q=29.0 size=    2304KiB time=00:00:07.40 bitrate=2550.6kbits/s speed=0.287x
[2024-12-23 13:49:37] frame=  229 fps=8.7 q=29.0 size=    2304KiB time=00:00:07.56 bitrate=2494.5kbits/s speed=0.287x
[2024-12-23 13:49:37] frame=  282 fps= 10 q=-1.0 size=    2816KiB time=00:00:09.33 bitrate=2471.7kbits/s speed=0.347x
[2024-12-23 13:49:37] [out#0/mp4 @ 000002487f779580] video:2965KiB audio:0KiB subtitle:0KiB other streams:0KiB global headers:0KiB muxing overhead: 0.129110%
[2024-12-23 13:49:37] frame=  299 fps= 11 q=-1.0 Lsize=    2969KiB time=00:00:09.90 bitrate=2456.6kbits/s speed=0.367x
[2024-12-23 13:49:37] [libx264 @ 000002487f77d2c0] frame I:2     Avg QP:21.41  size: 48036
[2024-12-23 13:49:37] [libx264 @ 000002487f77d2c0] frame P:209   Avg QP:23.48  size: 13025
[2024-12-23 13:49:37] [libx264 @ 000002487f77d2c0] frame B:88    Avg QP:24.80  size:  2469
[2024-12-23 13:49:37] [libx264 @ 000002487f77d2c0] consecutive B-frames: 45.5% 44.8%  3.0%  6.7%
[2024-12-23 13:49:37] [libx264 @ 000002487f77d2c0] mb I  I16..4: 19.4% 75.3%  5.3%
[2024-12-23 13:49:37] [libx264 @ 000002487f77d2c0] mb P  I16..4:  3.4% 11.5%  0.2%  P16..4: 50.4%  9.4%  3.5%  0.0%  0.0%    skip:21.6%
[2024-12-23 13:49:37] [libx264 @ 000002487f77d2c0] mb B  I16..4:  0.6%  1.6%  0.0%  B16..8: 30.2%  1.2%  0.1%  direct: 0.7%  skip:65.6%  L0:39.6% L1:57.2% BI: 3.2%
[2024-12-23 13:49:37] [libx264 @ 000002487f77d2c0] 8x8 transform intra:76.2% inter:85.5%
[2024-12-23 13:49:37] [libx264 @ 000002487f77d2c0] coded y,uvDC,uvAC intra: 43.4% 70.5% 12.9% inter: 14.2% 21.4% 0.3%
[2024-12-23 13:49:37] [libx264 @ 000002487f77d2c0] i16 v,h,dc,p: 36% 17% 21% 26%
[2024-12-23 13:49:37] [libx264 @ 000002487f77d2c0] i8 v,h,dc,ddl,ddr,vr,hd,vl,hu: 30% 18% 33%  3%  3%  4%  3%  4%  2%
[2024-12-23 13:49:37] [libx264 @ 000002487f77d2c0] i4 v,h,dc,ddl,ddr,vr,hd,vl,hu: 29% 16% 10%  5% 11% 11%  8%  7%  4%
[2024-12-23 13:49:37] [libx264 @ 000002487f77d2c0] i8c dc,h,v,p: 43% 19% 30%  8%
[2024-12-23 13:49:37] [libx264 @ 000002487f77d2c0] Weighted P-Frames: Y:0.0% UV:0.0%
[2024-12-23 13:49:37] [libx264 @ 000002487f77d2c0] ref P L0: 76.1% 13.5%  8.1%  2.3%
[2024-12-23 13:49:37] [libx264 @ 000002487f77d2c0] ref B L0: 87.1% 12.2%  0.7%
[2024-12-23 13:49:37] [libx264 @ 000002487f77d2c0] ref B L1: 98.6%  1.4%
[2024-12-23 13:49:37] [libx264 @ 000002487f77d2c0] kb/s:2436.50
[2024-12-23 13:49:46] C:\ProgramData\miniconda3\envs\tango\lib\site-packages\timm\models\layers\__init__.py:48: FutureWarning: Importing from timm.models.layers is deprecated, please import via timm.layers
[2024-12-23 13:49:46] warnings.warn(f"Importing from {__name__} is deprecated, please import via timm.layers", FutureWarning)
[2024-12-23 13:49:46] [92m12-23 13:49:46[0m Load checkpoint from C:\computer\3\itproject\manyaitools_modules\TANGO\SMPLer-X\main\../pretrained_models\smpler_x_s32.pth.tar
[2024-12-23 13:49:46] [92m12-23 13:49:46[0m Creating graph...
[2024-12-23 13:49:48] Loads checkpoint by local backend from path: C:\computer\3\itproject\manyaitools_modules\TANGO\SMPLer-X\main\../pretrained_models/mmdet/faster_rcnn_r50_fpn_1x_coco_20200130-047c8118.pth
[2024-12-23 13:50:31] 0%|          | 0/1 [00:00<?, ?it/s]
[2024-12-23 13:50:31] 100%|â–ˆâ–ˆâ–ˆâ–ˆâ–ˆâ–ˆâ–ˆâ–ˆâ–ˆâ–ˆ| 1/1 [00:42<00:00, 42.93s/it]
[2024-12-23 13:50:31] 100%|â–ˆâ–ˆâ–ˆâ–ˆâ–ˆâ–ˆâ–ˆâ–ˆâ–ˆâ–ˆ| 1/1 [00:42<00:00, 42.93s/it]
[2024-12-23 13:50:32] [0mcmd_smplx:  cd ./SMPLer-X/ && python app.py --video_folder_path C:\computer\3\itproject\manyaitools_modules\TANGO\outputs/tmpvideo --data_save_path C:\computer\3\itproject\manyaitools_modules\TANGO\outputs/tmpdata --json_save_path C:\computer\3\itproject\manyaitools_modules\TANGO\outputs/save_video.json && cd ..
[2024-12-23 13:50:34] json_path C:\computer\3\itproject\manyaitools_modules\TANGO\outputs/save_video.json
[2024-12-23 13:50:35] 0%|          | 0/299 [00:00<?, ?it/s]
[2024-12-23 13:50:35] 100%|â–ˆâ–ˆâ–ˆâ–ˆâ–ˆâ–ˆâ–ˆâ–ˆâ–ˆâ–ˆ| 299/299 [00:00<00:00, 299021.67it/s]
[2024-12-23 13:50:36] nodes: 299, edges: 742
[2024-12-23 13:50:36] Average In-degree: 2.4816053511705687
[2024-12-23 13:50:36] Average Out-degree: 2.4816053511705687
[2024-12-23 13:50:36] max in degree: 11, max out degree: 28
[2024-12-23 13:50:36] min in degree: 1, min out degree: 1
[2024-12-23 13:50:36] average_dis_continue: 0.04950495049504955
[2024-12-23 13:50:36] Moviepy - Building video C:\computer\3\itproject\manyaitools_modules\TANGO\tmp\video_only_1734933036.8484755.mp4.
[2024-12-23 13:50:36] Moviepy - Writing video C:\computer\3\itproject\manyaitools_modules\TANGO\tmp\video_only_1734933036.8484755.mp4
[2024-12-23 13:50:36] t:   0%|          | 0/101 [00:00<?, ?it/s, now=None]
[2024-12-23 13:50:37] t:  14%|â–ˆâ–        | 14/101 [00:00<00:00, 140.00it/s, now=None]
[2024-12-23 13:50:37] t:  46%|â–ˆâ–ˆâ–ˆâ–ˆâ–Œ     | 46/101 [00:00<00:00, 240.23it/s, now=None]
[2024-12-23 13:50:37] t:  69%|â–ˆâ–ˆâ–ˆâ–ˆâ–ˆâ–ˆâ–‰   | 70/101 [00:00<00:00, 226.83it/s, now=None]
[2024-12-23 13:50:37] t:  97%|â–ˆâ–ˆâ–ˆâ–ˆâ–ˆâ–ˆâ–ˆâ–ˆâ–ˆâ–‹| 98/101 [00:00<00:00, 245.09it/s, now=None]
[2024-12-23 13:50:37] Moviepy - Done !
[2024-12-23 13:50:37] Moviepy - video ready C:\computer\3\itproject\manyaitools_modules\TANGO\tmp\video_only_1734933036.8484755.mp4
[2024-12-23 13:50:37] before nodes: 299, edges: 742
[2024-12-23 13:50:37] after nodes: 299, edges: 742
[2024-12-23 13:50:37] Average In-degree: 2.4816053511705687
[2024-12-23 13:50:37] Average Out-degree: 2.4816053511705687
[2024-12-23 13:50:37] max in degree: 11, max out degree: 28
[2024-12-23 13:50:37] min in degree: 1, min out degree: 1
[2024-12-23 13:50:38] [0mcmd_graph:  python ./create_graph.py --json_save_path C:\computer\3\itproject\manyaitools_modules\TANGO\outputs/save_video.json --graph_save_path C:\computer\3\itproject\manyaitools_modules\TANGO\outputs/save_video.pkl
